<mxfile host="app.diagrams.net" modified="2023-10-05T09:39:42.383Z" agent="Mozilla/5.0 (Windows NT 10.0; Win64; x64) AppleWebKit/537.36 (KHTML, like Gecko) Chrome/117.0.0.0 Safari/537.36" etag="JSJGRNfYnY1O9WOHeiof" version="22.0.2" type="device">
  <diagram name="Página-1" id="dkeEDW7V509BjzIvwUvf">
    <mxGraphModel dx="2514" dy="882" grid="1" gridSize="10" guides="1" tooltips="1" connect="1" arrows="1" fold="1" page="1" pageScale="1" pageWidth="827" pageHeight="1169" math="0" shadow="0">
      <root>
        <mxCell id="0" />
        <mxCell id="1" parent="0" />
        <mxCell id="0vFWuS4aYfEC0fyxOq_h-3" value="" style="endArrow=none;html=1;rounded=0;entryX=0.617;entryY=-0.033;entryDx=0;entryDy=0;entryPerimeter=0;exitX=1.008;exitY=0.367;exitDx=0;exitDy=0;exitPerimeter=0;" edge="1" parent="1" source="0vFWuS4aYfEC0fyxOq_h-5" target="0vFWuS4aYfEC0fyxOq_h-6">
          <mxGeometry width="50" height="50" relative="1" as="geometry">
            <mxPoint x="-180" y="300" as="sourcePoint" />
            <mxPoint x="-190" y="350" as="targetPoint" />
          </mxGeometry>
        </mxCell>
        <mxCell id="0vFWuS4aYfEC0fyxOq_h-5" value="LIbros" style="rounded=0;whiteSpace=wrap;html=1;" vertex="1" parent="1">
          <mxGeometry x="-570" y="590" width="120" height="60" as="geometry" />
        </mxCell>
        <mxCell id="0vFWuS4aYfEC0fyxOq_h-6" value="Autores" style="rounded=0;whiteSpace=wrap;html=1;" vertex="1" parent="1">
          <mxGeometry x="-370" y="500" width="120" height="60" as="geometry" />
        </mxCell>
        <mxCell id="0vFWuS4aYfEC0fyxOq_h-7" value="Categorias" style="rounded=0;whiteSpace=wrap;html=1;" vertex="1" parent="1">
          <mxGeometry x="-370" y="400" width="120" height="60" as="geometry" />
        </mxCell>
        <mxCell id="0vFWuS4aYfEC0fyxOq_h-8" value="" style="endArrow=none;html=1;rounded=0;entryX=0;entryY=0.5;entryDx=0;entryDy=0;exitX=1;exitY=0.5;exitDx=0;exitDy=0;" edge="1" parent="1" source="0vFWuS4aYfEC0fyxOq_h-5" target="0vFWuS4aYfEC0fyxOq_h-7">
          <mxGeometry width="50" height="50" relative="1" as="geometry">
            <mxPoint x="-180" y="300" as="sourcePoint" />
            <mxPoint x="-200" y="348" as="targetPoint" />
          </mxGeometry>
        </mxCell>
        <mxCell id="0vFWuS4aYfEC0fyxOq_h-9" value="&lt;br&gt;&lt;span style=&quot;color: rgb(0, 0, 0); font-family: Helvetica; font-size: 12px; font-style: normal; font-variant-ligatures: normal; font-variant-caps: normal; font-weight: 400; letter-spacing: normal; orphans: 2; text-align: center; text-indent: 0px; text-transform: none; widows: 2; word-spacing: 0px; -webkit-text-stroke-width: 0px; background-color: rgb(251, 251, 251); text-decoration-thickness: initial; text-decoration-style: initial; text-decoration-color: initial; float: none; display: inline !important;&quot;&gt;ISBN&lt;/span&gt;&lt;br&gt;" style="rounded=0;whiteSpace=wrap;html=1;" vertex="1" parent="1">
          <mxGeometry x="-360" y="810" width="120" height="60" as="geometry" />
        </mxCell>
        <mxCell id="0vFWuS4aYfEC0fyxOq_h-14" value="&lt;br style=&quot;border-color: var(--border-color); color: rgb(0, 0, 0); font-family: Helvetica; font-size: 12px; font-style: normal; font-variant-ligatures: normal; font-variant-caps: normal; font-weight: 400; letter-spacing: normal; orphans: 2; text-align: center; text-indent: 0px; text-transform: none; widows: 2; word-spacing: 0px; -webkit-text-stroke-width: 0px; background-color: rgb(251, 251, 251); text-decoration-thickness: initial; text-decoration-style: initial; text-decoration-color: initial;&quot;&gt;&lt;span style=&quot;color: rgb(0, 0, 0); font-family: Helvetica; font-size: 12px; font-style: normal; font-variant-ligatures: normal; font-variant-caps: normal; font-weight: 400; letter-spacing: normal; orphans: 2; text-align: center; text-indent: 0px; text-transform: none; widows: 2; word-spacing: 0px; -webkit-text-stroke-width: 0px; background-color: rgb(251, 251, 251); text-decoration-thickness: initial; text-decoration-style: initial; text-decoration-color: initial; float: none; display: inline !important;&quot;&gt;Codigooautor&lt;/span&gt;&lt;br&gt;" style="rounded=0;whiteSpace=wrap;html=1;" vertex="1" parent="1">
          <mxGeometry x="-370" y="590" width="120" height="60" as="geometry" />
        </mxCell>
        <mxCell id="0vFWuS4aYfEC0fyxOq_h-15" value="&lt;br style=&quot;border-color: var(--border-color);&quot;&gt;Título&lt;br style=&quot;border-color: var(--border-color);&quot;&gt;" style="rounded=0;whiteSpace=wrap;html=1;" vertex="1" parent="1">
          <mxGeometry x="-370" y="680" width="120" height="60" as="geometry" />
        </mxCell>
        <mxCell id="0vFWuS4aYfEC0fyxOq_h-16" value="" style="endArrow=none;html=1;rounded=0;entryX=1;entryY=0.5;entryDx=0;entryDy=0;exitX=0;exitY=0.5;exitDx=0;exitDy=0;" edge="1" parent="1" source="0vFWuS4aYfEC0fyxOq_h-15" target="0vFWuS4aYfEC0fyxOq_h-5">
          <mxGeometry width="50" height="50" relative="1" as="geometry">
            <mxPoint x="-180" y="300" as="sourcePoint" />
            <mxPoint x="-500" y="428" as="targetPoint" />
          </mxGeometry>
        </mxCell>
        <mxCell id="0vFWuS4aYfEC0fyxOq_h-17" value="" style="endArrow=none;html=1;rounded=0;entryX=0;entryY=0.25;entryDx=0;entryDy=0;" edge="1" parent="1" target="0vFWuS4aYfEC0fyxOq_h-9">
          <mxGeometry width="50" height="50" relative="1" as="geometry">
            <mxPoint x="-450" y="630" as="sourcePoint" />
            <mxPoint x="-179.71000000000004" y="423" as="targetPoint" />
          </mxGeometry>
        </mxCell>
        <mxCell id="0vFWuS4aYfEC0fyxOq_h-18" value="" style="endArrow=none;html=1;rounded=0;entryX=0;entryY=0.5;entryDx=0;entryDy=0;" edge="1" parent="1" target="0vFWuS4aYfEC0fyxOq_h-14">
          <mxGeometry width="50" height="50" relative="1" as="geometry">
            <mxPoint x="-450" y="620" as="sourcePoint" />
            <mxPoint x="-146.25" y="423" as="targetPoint" />
          </mxGeometry>
        </mxCell>
        <mxCell id="0vFWuS4aYfEC0fyxOq_h-20" value="Prestamos activos" style="rounded=0;whiteSpace=wrap;html=1;" vertex="1" parent="1">
          <mxGeometry x="-230" y="320" width="120" height="60" as="geometry" />
        </mxCell>
        <mxCell id="0vFWuS4aYfEC0fyxOq_h-21" value="" style="endArrow=none;html=1;rounded=0;entryX=0;entryY=0.25;entryDx=0;entryDy=0;exitX=1;exitY=0.5;exitDx=0;exitDy=0;edgeStyle=orthogonalEdgeStyle;" edge="1" parent="1" target="0vFWuS4aYfEC0fyxOq_h-20">
          <mxGeometry width="50" height="50" relative="1" as="geometry">
            <mxPoint x="-520" y="590" as="sourcePoint" />
            <mxPoint x="-440" y="400" as="targetPoint" />
            <Array as="points">
              <mxPoint x="-520" y="591" />
              <mxPoint x="-490" y="591" />
              <mxPoint x="-490" y="335" />
            </Array>
          </mxGeometry>
        </mxCell>
        <mxCell id="0vFWuS4aYfEC0fyxOq_h-22" value="Usuarios" style="rounded=0;whiteSpace=wrap;html=1;" vertex="1" parent="1">
          <mxGeometry x="-30" y="320" width="120" height="60" as="geometry" />
        </mxCell>
        <mxCell id="0vFWuS4aYfEC0fyxOq_h-24" value="" style="endArrow=none;html=1;rounded=0;entryX=0.5;entryY=0;entryDx=0;entryDy=0;exitX=0.75;exitY=0;exitDx=0;exitDy=0;edgeStyle=orthogonalEdgeStyle;" edge="1" parent="1" source="0vFWuS4aYfEC0fyxOq_h-5" target="0vFWuS4aYfEC0fyxOq_h-22">
          <mxGeometry width="50" height="50" relative="1" as="geometry">
            <mxPoint x="-50" y="300" as="sourcePoint" />
            <mxPoint x="30" y="300" as="targetPoint" />
            <Array as="points">
              <mxPoint x="-520" y="590" />
              <mxPoint x="-520" y="280" />
              <mxPoint x="30" y="280" />
            </Array>
          </mxGeometry>
        </mxCell>
        <mxCell id="0vFWuS4aYfEC0fyxOq_h-25" value="Estado" style="rounded=0;whiteSpace=wrap;html=1;" vertex="1" parent="1">
          <mxGeometry x="-30" y="490" width="120" height="60" as="geometry" />
        </mxCell>
        <mxCell id="0vFWuS4aYfEC0fyxOq_h-26" value="" style="endArrow=none;html=1;rounded=0;exitX=0;exitY=0.5;exitDx=0;exitDy=0;edgeStyle=orthogonalEdgeStyle;" edge="1" parent="1" source="0vFWuS4aYfEC0fyxOq_h-25">
          <mxGeometry width="50" height="50" relative="1" as="geometry">
            <mxPoint x="-210" y="430" as="sourcePoint" />
            <mxPoint x="-160" y="380" as="targetPoint" />
          </mxGeometry>
        </mxCell>
        <mxCell id="0vFWuS4aYfEC0fyxOq_h-27" value="" style="endArrow=none;html=1;rounded=0;entryX=0.083;entryY=0.667;entryDx=0;entryDy=0;entryPerimeter=0;" edge="1" parent="1" target="0vFWuS4aYfEC0fyxOq_h-22">
          <mxGeometry width="50" height="50" relative="1" as="geometry">
            <mxPoint x="-110" y="360" as="sourcePoint" />
            <mxPoint x="-50" y="360" as="targetPoint" />
            <Array as="points">
              <mxPoint x="-60" y="360" />
            </Array>
          </mxGeometry>
        </mxCell>
      </root>
    </mxGraphModel>
  </diagram>
</mxfile>
